<?xml version="1.0" encoding="UTF-8"?>
<svg width="700pt" height="700pt" version="1.1" viewBox="0 0 700 700" xmlns="http://www.w3.org/2000/svg">
 <path d="m251.42 297.42c14.168 35.52 35.434 67.777 62.5 94.797l70.52 70.52c11.051 11.082 26.066 17.293 41.719 17.262h83.84v-40h-83.84c-5.043-0.019531-9.875-2.0156-13.461-5.5586l-70.48-70.5c-23.234-23.188-41.496-50.871-53.66-81.363-14.16-35.523-35.43-67.781-62.5-94.797l-67.777-67.781 71.719-71.719c10.66-10.699 29.32-10.699 40 0l17.461 17.48-8.1602 27.941v-0.003906c-3.0312 10.332-3.2266 21.293-0.5625 31.727 2.6641 10.434 8.0859 19.961 15.703 27.574l21.281 21.281 28.277-28.281-21.262-21.262c-2.5391-2.5352-4.3516-5.7148-5.2422-9.1953s-0.82812-7.1367 0.18359-10.582l14.84-50.719-34.238-34.242c-25.781-25.781-70.801-25.781-96.562 0l-100 100 96.039 96.059h0.003907c23.242 23.184 41.5 50.867 53.66 81.363zm-141.4 262.6h140v-40l-140.02-0.003907v40zm-60-80h140v-40l-140.02-0.003907v40zm600-19.68-0.003907 39.656c0 33.078-26.941 60-60 60h-170.52c-37.02 0.085938-72.539-14.625-98.66-40.859l-248.4-248.44c-14.344-14.367-22.395-33.84-22.395-54.141 0-20.301 8.0508-39.77 22.395-54.137l28.262 28.281-0.003906-0.003906c-6.8516 6.8633-10.699 16.164-10.699 25.859 0 9.6992 3.8477 19 10.699 25.863l248.42 248.44v-0.003906c18.637 18.719 43.984 29.207 70.398 29.141h170.48c11.02 0 20-8.9609 20-20v-39.66c-0.003906-6.3672-3.0508-12.352-8.1992-16.102l-99.441-72.34-14.281-57.059-98.238 24.559-9.6992-38.801 98.262-24.559-10.32-41.199-98.238 24.559-9.6992-38.801 98.262-24.559-18.121-72.379h-0.003906c-1.2578-5.1602-4.5273-9.6055-9.082-12.34-4.5547-2.7383-10.012-3.5352-15.16-2.2188l-29.68 7.4219-9.6797-38.801 29.66-7.3984v-0.003907c15.434-3.9141 31.789-1.4883 45.422 6.7383 13.664 8.168 23.504 21.449 27.34 36.902l58.539 234.14 87.68 63.801v-0.003906c15.477 11.281 24.648 29.27 24.68 48.422z" fill-rule="evenodd"/>
</svg>
