<?xml version="1.0" encoding="UTF-8"?>
<svg width="700pt" height="700pt" version="1.1" viewBox="0 0 700 700" xmlns="http://www.w3.org/2000/svg" xmlns:xlink="http://www.w3.org/1999/xlink">
 <defs>
  <symbol id="m" overflow="visible">
   <path d="m29.312-1.75c-1.5117 0.78125-3.0898 1.3711-4.7344 1.7656-1.6367 0.40625-3.3398 0.60938-5.1094 0.60938-5.3125 0-9.5273-1.4844-12.641-4.4531-3.1055-2.9688-4.6562-7-4.6562-12.094s1.5508-9.125 4.6562-12.094c3.1133-2.9688 7.3281-4.4531 12.641-4.4531 1.7695 0 3.4727 0.19922 5.1094 0.59375 1.6445 0.39844 3.2227 0.99219 4.7344 1.7812v6.5938c-1.5312-1.0391-3.0391-1.8008-4.5156-2.2812-1.4805-0.48828-3.0391-0.73438-4.6719-0.73438-2.9375 0-5.2461 0.94531-6.9219 2.8281-1.6797 1.875-2.5156 4.4648-2.5156 7.7656 0 3.293 0.83594 5.8828 2.5156 7.7656 1.6758 1.875 3.9844 2.8125 6.9219 2.8125 1.6328 0 3.1914-0.23828 4.6719-0.71875 1.4766-0.48828 2.9844-1.2539 4.5156-2.2969z"/>
  </symbol>
  <symbol id="d" overflow="visible">
   <path d="m21.453-17.406c-0.67969-0.3125-1.3516-0.53906-2.0156-0.6875-0.65625-0.15625-1.3203-0.23438-1.9844-0.23438-1.9688 0-3.4844 0.63281-4.5469 1.8906-1.0547 1.2617-1.5781 3.0703-1.5781 5.4219v11.016h-7.6562v-23.922h7.6562v3.9219c0.97656-1.5625 2.1016-2.7031 3.375-3.4219 1.2812-0.71875 2.8125-1.0781 4.5938-1.0781 0.25 0 0.52344 0.011719 0.82812 0.03125 0.30078 0.023438 0.73438 0.070312 1.2969 0.14062z"/>
  </symbol>
  <symbol id="a" overflow="visible">
   <path d="m27.562-12.031v2.1875h-17.891c0.1875 1.793 0.83203 3.1367 1.9375 4.0312 1.1133 0.89844 2.6719 1.3438 4.6719 1.3438 1.6016 0 3.25-0.23438 4.9375-0.70312 1.6875-0.47656 3.4219-1.2031 5.2031-2.1719v5.8906c-1.8047 0.6875-3.6094 1.2031-5.4219 1.5469-1.8125 0.35156-3.6211 0.53125-5.4219 0.53125-4.3359 0-7.7031-1.0977-10.109-3.2969-2.3984-2.207-3.5938-5.2969-3.5938-9.2656 0-3.9062 1.1758-6.9727 3.5312-9.2031 2.3633-2.2383 5.6094-3.3594 9.7344-3.3594 3.7578 0 6.7695 1.1367 9.0312 3.4062 2.2578 2.2617 3.3906 5.2812 3.3906 9.0625zm-7.8594-2.5312c0-1.457-0.42969-2.6289-1.2812-3.5156-0.84375-0.89453-1.9492-1.3438-3.3125-1.3438-1.4922 0-2.6992 0.41797-3.625 1.25-0.91797 0.83594-1.4922 2.0391-1.7188 3.6094z"/>
  </symbol>
  <symbol id="j" overflow="visible">
   <path d="m14.391-10.766c-1.5938 0-2.793 0.27344-3.5938 0.8125-0.80469 0.54297-1.2031 1.3398-1.2031 2.3906 0 0.96875 0.32031 1.7305 0.96875 2.2812 0.64453 0.54297 1.5469 0.8125 2.7031 0.8125 1.4375 0 2.6445-0.51562 3.625-1.5469 0.98828-1.0312 1.4844-2.3203 1.4844-3.875v-0.875zm11.688-2.8906v13.656h-7.7031v-3.5469c-1.0312 1.4492-2.1875 2.5078-3.4688 3.1719s-2.8398 1-4.6719 1c-2.4805 0-4.4961-0.72266-6.0469-2.1719-1.543-1.4453-2.3125-3.3203-2.3125-5.625 0-2.8125 0.96094-4.8672 2.8906-6.1719 1.9375-1.3125 4.9688-1.9688 9.0938-1.9688h4.5156v-0.60938c0-1.207-0.48047-2.0938-1.4375-2.6562-0.94922-0.5625-2.4375-0.84375-4.4688-0.84375-1.6367 0-3.1562 0.16797-4.5625 0.5-1.4062 0.32422-2.7188 0.8125-3.9375 1.4688v-5.8281c1.6445-0.40625 3.2891-0.70703 4.9375-0.90625 1.6562-0.20703 3.3047-0.3125 4.9531-0.3125 4.3203 0 7.4375 0.85547 9.3438 2.5625 1.9141 1.6992 2.875 4.4609 2.875 8.2812z"/>
  </symbol>
  <symbol id="i" overflow="visible">
   <path d="m12.031-30.719v6.7969h7.875v5.4688h-7.875v10.141c0 1.1172 0.21875 1.8711 0.65625 2.2656 0.4375 0.38672 1.3125 0.57812 2.625 0.57812h3.9375v5.4688h-6.5625c-3.0234 0-5.1641-0.62891-6.4219-1.8906-1.2617-1.2578-1.8906-3.3984-1.8906-6.4219v-10.141h-3.7969v-5.4688h3.7969v-6.7969z"/>
  </symbol>
  <symbol id="c" overflow="visible">
   <path d="m19.953-20.422v-12.812h7.6875v33.234h-7.6875v-3.4531c-1.0547 1.4062-2.2148 2.4375-3.4844 3.0938-1.2734 0.65625-2.7422 0.98438-4.4062 0.98438-2.9492 0-5.3711-1.1719-7.2656-3.5156-1.8867-2.3438-2.8281-5.3594-2.8281-9.0469s0.94141-6.7031 2.8281-9.0469c1.8945-2.3438 4.3164-3.5156 7.2656-3.5156 1.6562 0 3.1172 0.33594 4.3906 1 1.2812 0.65625 2.4453 1.6836 3.5 3.0781zm-5.0469 15.484c1.6445 0 2.8945-0.59766 3.75-1.7969 0.86328-1.1953 1.2969-2.9297 1.2969-5.2031 0-2.2812-0.43359-4.0195-1.2969-5.2188-0.85547-1.1953-2.1055-1.7969-3.75-1.7969-1.625 0-2.8711 0.60156-3.7344 1.7969-0.85547 1.1992-1.2812 2.9375-1.2812 5.2188 0 2.2734 0.42578 4.0078 1.2812 5.2031 0.86328 1.1992 2.1094 1.7969 3.7344 1.7969z"/>
  </symbol>
  <symbol id="h" overflow="visible">
   <path d="m16.406-4.9375c1.6328 0 2.8828-0.59766 3.75-1.7969 0.86328-1.1953 1.2969-2.9297 1.2969-5.2031 0-2.2812-0.43359-4.0195-1.2969-5.2188-0.86719-1.1953-2.1172-1.7969-3.75-1.7969-1.6367 0-2.8906 0.60547-3.7656 1.8125-0.875 1.1992-1.3125 2.9336-1.3125 5.2031 0 2.2617 0.4375 3.9961 1.3125 5.2031 0.875 1.1992 2.1289 1.7969 3.7656 1.7969zm-5.0781-15.484c1.0508-1.3945 2.2188-2.4219 3.5-3.0781 1.2812-0.66406 2.7539-1 4.4219-1 2.9453 0 5.3672 1.1719 7.2656 3.5156 1.8945 2.3438 2.8438 5.3594 2.8438 9.0469s-0.94922 6.7031-2.8438 9.0469c-1.8984 2.3438-4.3203 3.5156-7.2656 3.5156-1.668 0-3.1406-0.33594-4.4219-1s-2.4492-1.6914-3.5-3.0781v3.4531h-7.6562v-33.234h7.6562z"/>
  </symbol>
  <symbol id="g" overflow="visible">
   <path d="m0.53125-23.922h7.6562l6.4219 16.234 5.4688-16.234h7.6562l-10.062 26.188c-1.0117 2.6641-2.1953 4.5234-3.5469 5.5781-1.3438 1.0625-3.1211 1.5938-5.3281 1.5938h-4.4219v-5.0156h2.3906c1.3008 0 2.2422-0.21094 2.8281-0.625 0.59375-0.40625 1.0547-1.1484 1.3906-2.2188l0.20312-0.65625z"/>
  </symbol>
  <symbol id="f" overflow="visible">
   <path d="m15.062-19.031c-1.6992 0-2.9961 0.60938-3.8906 1.8281-0.88672 1.2188-1.3281 2.9766-1.3281 5.2656 0 2.293 0.44141 4.0469 1.3281 5.2656 0.89453 1.2188 2.1914 1.8281 3.8906 1.8281 1.6641 0 2.9375-0.60938 3.8125-1.8281 0.88281-1.2188 1.3281-2.9727 1.3281-5.2656 0-2.2891-0.44531-4.0469-1.3281-5.2656-0.875-1.2188-2.1484-1.8281-3.8125-1.8281zm0-5.4688c4.1133 0 7.3281 1.1094 9.6406 3.3281s3.4688 5.2969 3.4688 9.2344c0 3.9297-1.1562 7.0078-3.4688 9.2344-2.3125 2.2188-5.5273 3.3281-9.6406 3.3281-4.1367 0-7.3711-1.1094-9.7031-3.3281-2.3242-2.2266-3.4844-5.3047-3.4844-9.2344 0-3.9375 1.1602-7.0156 3.4844-9.2344 2.332-2.2188 5.5664-3.3281 9.7031-3.3281z"/>
  </symbol>
  <symbol id="b" overflow="visible">
   <path d="m27.734-14.562v14.562h-7.7031v-11.156c0-2.0625-0.046875-3.4844-0.14062-4.2656-0.085937-0.78125-0.24219-1.3594-0.46875-1.7344-0.30469-0.5-0.71094-0.88281-1.2188-1.1562-0.51172-0.28125-1.0938-0.42188-1.75-0.42188-1.5938 0-2.8516 0.61719-3.7656 1.8438-0.90625 1.2305-1.3594 2.9375-1.3594 5.125v11.766h-7.6562v-23.922h7.6562v3.5c1.1445-1.3945 2.3633-2.4219 3.6562-3.0781 1.3008-0.66406 2.7383-1 4.3125-1 2.7578 0 4.8516 0.85156 6.2812 2.5469 1.4375 1.6875 2.1562 4.1523 2.1562 7.3906z"/>
  </symbol>
  <symbol id="e" overflow="visible">
   <path d="m3.6719-23.922h7.6562v23.922h-7.6562zm0-9.3125h7.6562v6.2344h-7.6562z"/>
  </symbol>
  <symbol id="l" overflow="visible">
   <path d="m22.359-23.172v5.7969c-1.6367-0.67578-3.2148-1.1875-4.7344-1.5312-1.5234-0.34375-2.9609-0.51562-4.3125-0.51562-1.4609 0-2.543 0.18359-3.25 0.54688-0.69922 0.36719-1.0469 0.92188-1.0469 1.6719 0 0.61719 0.26562 1.0898 0.79688 1.4219 0.53125 0.32422 1.4883 0.5625 2.875 0.71875l1.3438 0.1875c3.9141 0.5 6.5508 1.3242 7.9062 2.4688 1.3516 1.1367 2.0312 2.9219 2.0312 5.3594 0 2.5547-0.94531 4.4688-2.8281 5.75-1.875 1.2812-4.6797 1.9219-8.4062 1.9219-1.5859 0-3.2188-0.125-4.9062-0.375s-3.4219-0.625-5.2031-1.125v-5.8125c1.5195 0.74219 3.082 1.2969 4.6875 1.6719 1.6016 0.36719 3.2344 0.54688 4.8906 0.54688 1.4883 0 2.6094-0.20312 3.3594-0.60938 0.75781-0.41406 1.1406-1.0312 1.1406-1.8438 0-0.6875-0.26172-1.1953-0.78125-1.5312-0.52344-0.33203-1.5586-0.59375-3.1094-0.78125l-1.3438-0.17188c-3.4062-0.42578-5.793-1.2109-7.1562-2.3594-1.3672-1.1562-2.0469-2.9102-2.0469-5.2656 0-2.5312 0.86719-4.4062 2.6094-5.625 1.7383-1.2266 4.3984-1.8438 7.9844-1.8438 1.4062 0 2.8828 0.10938 4.4375 0.32812 1.5508 0.21094 3.2383 0.54297 5.0625 1z"/>
  </symbol>
  <symbol id="k" overflow="visible">
   <path d="m19.953-4.0625c-1.0547 1.3984-2.2148 2.4219-3.4844 3.0781-1.2734 0.65625-2.7422 0.98438-4.4062 0.98438-2.918 0-5.3281-1.1484-7.2344-3.4531-1.9062-2.3008-2.8594-5.2266-2.8594-8.7812 0-3.582 0.95312-6.5156 2.8594-8.7969s4.3164-3.4219 7.2344-3.4219c1.6641 0 3.1328 0.32812 4.4062 0.98438 1.2695 0.64844 2.4297 1.6797 3.4844 3.0938v-3.5469h7.6875v21.516c0 3.8438-1.2148 6.7734-3.6406 8.7969-2.4297 2.0312-5.9492 3.0469-10.562 3.0469-1.5 0-2.9492-0.11719-4.3438-0.34375-1.3984-0.21875-2.7969-0.57031-4.2031-1.0469v-5.9531c1.3438 0.76953 2.6562 1.3438 3.9375 1.7188s2.5664 0.5625 3.8594 0.5625c2.5078 0 4.3477-0.54688 5.5156-1.6406 1.1641-1.0938 1.75-2.8047 1.75-5.1406zm-5.0469-14.891c-1.5742 0-2.8047 0.58984-3.6875 1.7656-0.88672 1.168-1.3281 2.8203-1.3281 4.9531 0 2.1875 0.42578 3.8516 1.2812 4.9844 0.85156 1.1367 2.0977 1.7031 3.7344 1.7031 1.5938 0 2.832-0.58203 3.7188-1.75 0.88281-1.1758 1.3281-2.8203 1.3281-4.9375 0-2.1328-0.44531-3.7852-1.3281-4.9531-0.88672-1.1758-2.125-1.7656-3.7188-1.7656z"/>
  </symbol>
 </defs>
 <g>
  <path d="m607.86 153.21c-1.2109-18.566-9.9219-35.844-24.133-47.859-14.207-12.016-32.695-17.73-51.207-15.84-8.8438 0.80469-16.758 5.8203-21.262 13.477-4.5977 7.625-5.2773 16.988-1.8359 25.199l18.637 44.711c10.559 25.359 31.594 44.895 57.664 53.551 1.9961 0.69531 4.0977 1.0508 6.2109 1.0508 4.2852-0.03125 8.4375-1.4766 11.812-4.1133 5.1641-3.9922 8.0156-10.285 7.6133-16.801zm-14.699 56.789c-0.60937 0.29688-1.3203 0.29688-1.9258 0-21.27-7.0781-38.414-23.043-46.988-43.75l-18.637-44.711c-1.2969-3.0742-1.0664-6.5742 0.61328-9.4531 1.6953-2.8984 4.6992-4.793 8.0469-5.0742h5.1641c12.078-0.015625 23.773 4.2656 32.988 12.074 10.457 8.9805 16.781 21.852 17.5 35.613l3.5859 53.461v0.003906c0.17969 0.63281 0.050781 1.3125-0.34766 1.8359zm-425.69-120.49c-18.512-1.8906-37 3.8242-51.207 15.84-14.211 12.016-22.922 29.293-24.133 47.859l-3.5859 53.461v0.003906c-0.35547 6.5 2.5273 12.758 7.6992 16.711 3.375 2.6367 7.5273 4.082 11.812 4.1133 2.1133 0 4.2148-0.35547 6.2109-1.0508 26.07-8.6562 47.105-28.191 57.664-53.551l18.637-44.711c3.4414-8.2109 2.7617-17.574-1.8359-25.199-4.5039-7.6562-12.418-12.672-21.262-13.477zm6.9141 31.938-18.641 44.801c-8.5742 20.707-25.719 36.672-46.988 43.75-0.60547 0.29688-1.3164 0.29688-1.9258 0-0.52734-0.42188-0.82031-1.0742-0.78516-1.75l3.5859-53.461c0.83203-13.832 7.3164-26.715 17.938-35.613 9.2148-7.8125 20.91-12.09 32.988-12.074h5.1641c3.3477 0.27734 6.3516 2.1719 8.0469 5.0742 1.625 2.832 1.8516 6.2539 0.61328 9.2734zm286.73-25.199h-8.75c-10.238 0.011719-20.18 3.4258-28.262 9.7109-21.324 16.406-47.473 25.301-74.375 25.301-26.902 0-53.051-8.8945-74.375-25.301-8.0117-6.2305-17.852-9.6445-28-9.7109h-8.75c-9.5117-0.027344-18.805 2.8594-26.629 8.2695-7.8203 5.4141-13.797 13.094-17.121 22.004-0.83594 2.293-0.67969 4.832 0.4375 7 9.4766 18.227 14.516 38.434 14.699 58.977-0.65234 10.801-2.5586 21.492-5.6875 31.852-2.9609 11.238-1.9727 23.152 2.8086 33.746 4.7773 10.594 13.055 19.223 23.441 24.441l2.0117 1.0508 29.137 58.188v-0.003906c-0.046876 0.37891-0.046876 0.76172 0 1.1406 2.4805 4.918 3.8281 10.328 3.9375 15.836 0.042968 6.0781-1.3672 12.078-4.1094 17.5-7.4062 14.594-8.0781 31.691-1.8398 46.824 6.2383 15.129 18.762 26.789 34.301 31.926l38.5 12.074c11.527 3.8516 23.996 3.8516 35.523 0l38.148-12.773h0.003906c15.574-5.0898 28.141-16.742 34.387-31.891 6.2461-15.148 5.543-32.273-1.9258-46.859-5.293-10.82-5.293-23.48 0-34.301v-0.69922c0.015625-0.29297 0.015625-0.58594 0-0.875l28.176-56.523 2.0117-0.96094v-0.003906c10.375-5.2305 18.641-13.859 23.418-24.449 4.7812-10.59 5.7773-22.5 2.832-33.738-2.8828-10.273-4.582-20.84-5.0742-31.5-0.003906-20.492 4.8203-40.695 14.086-58.977 0.97656-2.2305 0.97656-4.7656 0-7-3.2773-8.7852-9.1328-16.379-16.797-21.781-7.668-5.3984-16.785-8.3594-26.164-8.4922zm-111.12 52.5c30.324 0.027344 59.824-9.8672 84-28.176-2.1016 4.8125-4.4609 10.5-7 17.5-3.5469 9.6875-10.477 17.77-19.512 22.75-35.945 19.102-79.031 19.102-114.98 0-9.0352-4.9805-15.965-13.062-19.512-22.75-2.5391-6.8242-4.8984-12.512-7-17.5 24.176 18.309 53.676 28.203 84 28.176zm50.398 288.75-38.238 12.773h0.003906c-7.8984 2.625-16.43 2.625-24.328 0l-38.234-12.773c-10.617-3.5195-19.18-11.473-23.477-21.797s-3.9062-22.004 1.0742-32.016c3.8906-7.7383 5.9297-16.277 5.9492-24.938v-1.9258l62.562 35.789c2.707 1.5625 6.043 1.5625 8.75 0l62.648-37.539h0.003906c-0.74609 9.9609 1.2188 19.941 5.6875 28.875 2.6758 5.4453 4.0508 11.434 4.0234 17.5-0.09375 8.0156-2.6914 15.801-7.4297 22.266s-11.379 11.285-18.996 13.785zm24.238-107.62-74.637 44.977-72.887-41.648-18.375-36.578 61.25 30.801c18.812 9.3867 40.945 9.3867 59.762 0l61.25-30.711zm47.863-137.38c0.63672 12.336 2.7227 24.551 6.2109 36.398 1.9453 7.3906 1.2617 15.227-1.9297 22.168s-8.6953 12.559-15.57 15.895l-89.074 44.715c-13.91 6.9336-30.273 6.9336-44.188 0l-89.426-44.801c-6.8828-3.3242-12.395-8.9414-15.59-15.887-3.1914-6.9453-3.8672-14.785-1.9102-22.176 3.5898-11.805 5.7617-23.996 6.4766-36.312 0.027344-21.82-4.8164-43.375-14.176-63.086 2.3789-4.7305 6.0312-8.7031 10.547-11.473 4.5117-2.7656 9.7109-4.2188 15.004-4.1914h3.7617c5.8789 9.4727 10.555 19.645 13.914 30.273 5.0391 13.699 14.902 25.086 27.738 32.027 41.016 21.871 90.23 21.871 131.25 0 12.836-6.9414 22.695-18.328 27.734-32.027 3.418-10.637 8.1484-20.809 14.09-30.273h3.7617c5.293-0.027344 10.492 1.4258 15.004 4.1914 4.5156 2.7695 8.168 6.7422 10.547 11.473-9.3594 19.711-14.203 41.266-14.176 63.086z"/>
  <use x="70" y="691.25" xlink:href="#m"/>
  <use x="102.109375" y="691.25" xlink:href="#d"/>
  <use x="123.683594" y="691.25" xlink:href="#a"/>
  <use x="153.355469" y="691.25" xlink:href="#j"/>
  <use x="182.878906" y="691.25" xlink:href="#i"/>
  <use x="203.792969" y="691.25" xlink:href="#a"/>
  <use x="233.464844" y="691.25" xlink:href="#c"/>
  <use x="280.011719" y="691.25" xlink:href="#h"/>
  <use x="311.328125" y="691.25" xlink:href="#g"/>
  <use x="355.078125" y="691.25" xlink:href="#d"/>
  <use x="376.65625" y="691.25" xlink:href="#f"/>
  <use x="406.710937" y="691.25" xlink:href="#b"/>
  <use x="437.859375" y="691.25" xlink:href="#e"/>
  <use x="452.855469" y="691.25" xlink:href="#b"/>
  <use x="499.234375" y="691.25" xlink:href="#c"/>
  <use x="530.550781" y="691.25" xlink:href="#a"/>
  <use x="560.222656" y="691.25" xlink:href="#l"/>
  <use x="586.261719" y="691.25" xlink:href="#e"/>
  <use x="601.257812" y="691.25" xlink:href="#k"/>
  <use x="632.578125" y="691.25" xlink:href="#b"/>
 </g>
</svg>
