<?xml version="1.0" encoding="UTF-8"?>
<svg width="700pt" height="700pt" version="1.1" viewBox="0 0 700 700" xmlns="http://www.w3.org/2000/svg" xmlns:xlink="http://www.w3.org/1999/xlink">
 <defs>
  <symbol id="v" overflow="visible">
   <path d="m14.891-0.89062c-0.77344 0.39844-1.5742 0.69531-2.4062 0.89062-0.83594 0.20703-1.6992 0.3125-2.5938 0.3125-2.6992 0-4.8398-0.75-6.4219-2.25-1.5742-1.5078-2.3594-3.5547-2.3594-6.1406 0-2.5938 0.78516-4.6406 2.3594-6.1406 1.582-1.5078 3.7227-2.2656 6.4219-2.2656 0.89453 0 1.7578 0.10156 2.5938 0.29688 0.83203 0.19922 1.6328 0.5 2.4062 0.90625v3.3438c-0.78125-0.51953-1.5469-0.90625-2.2969-1.1562s-1.543-0.375-2.375-0.375c-1.4922 0-2.6641 0.48047-3.5156 1.4375-0.85547 0.96094-1.2812 2.2773-1.2812 3.9531 0 1.668 0.42578 2.9805 1.2812 3.9375 0.85156 0.94922 2.0234 1.4219 3.5156 1.4219 0.83203 0 1.625-0.11719 2.375-0.35938 0.75-0.25 1.5156-0.63281 2.2969-1.1562z"/>
  </symbol>
  <symbol id="d" overflow="visible">
   <path d="m10.891-8.8438c-0.34375-0.15625-0.68359-0.26953-1.0156-0.34375-0.33594-0.082031-0.67188-0.125-1.0156-0.125-1 0-1.7734 0.32422-2.3125 0.96875-0.53125 0.63672-0.79688 1.5547-0.79688 2.75v5.5938h-3.8906v-12.156h3.8906v2c0.5-0.78906 1.0703-1.3672 1.7188-1.7344 0.64453-0.36328 1.4219-0.54688 2.3281-0.54688 0.125 0 0.26562 0.007812 0.42188 0.015625 0.15625 0.011719 0.375 0.03125 0.65625 0.0625z"/>
  </symbol>
  <symbol id="b" overflow="visible">
   <path d="m14-6.1094v1.1094h-9.0781c0.09375 0.90625 0.42188 1.5898 0.98438 2.0469 0.5625 0.46094 1.3477 0.6875 2.3594 0.6875 0.82031 0 1.6602-0.11719 2.5156-0.35938 0.85156-0.25 1.7344-0.61719 2.6406-1.1094v3c-0.91797 0.34375-1.8398 0.60547-2.7656 0.78125-0.91797 0.17578-1.8359 0.26562-2.75 0.26562-2.1992 0-3.9062-0.55469-5.125-1.6719-1.2188-1.1133-1.8281-2.6797-1.8281-4.7031 0-1.9766 0.59766-3.5352 1.7969-4.6719 1.1953-1.1328 2.8438-1.7031 4.9375-1.7031 1.9141 0 3.4453 0.57422 4.5938 1.7188 1.1445 1.1484 1.7188 2.6836 1.7188 4.6094zm-4-1.2969c0-0.72656-0.21484-1.3164-0.64062-1.7656-0.42969-0.45703-0.99219-0.6875-1.6875-0.6875-0.75 0-1.3672 0.21484-1.8438 0.64062-0.46875 0.41797-0.76172 1.0234-0.875 1.8125z"/>
  </symbol>
  <symbol id="l" overflow="visible">
   <path d="m7.3125-5.4688c-0.8125 0-1.4219 0.14062-1.8281 0.42188-0.40625 0.27344-0.60938 0.67188-0.60938 1.2031 0 0.49219 0.16016 0.875 0.48438 1.1562 0.33203 0.28125 0.78906 0.42188 1.375 0.42188 0.72656 0 1.3438-0.25781 1.8438-0.78125 0.5-0.53125 0.75-1.1875 0.75-1.9688v-0.45312zm5.9375-1.4688v6.9375h-3.9219v-1.7969c-0.52344 0.74219-1.1094 1.2773-1.7656 1.6094-0.64844 0.33203-1.4336 0.5-2.3594 0.5-1.2617 0-2.2891-0.36328-3.0781-1.0938-0.78125-0.73828-1.1719-1.6914-1.1719-2.8594 0-1.4258 0.48828-2.4727 1.4688-3.1406 0.97656-0.66406 2.5195-1 4.625-1h2.2812v-0.29688c0-0.61328-0.24609-1.0625-0.73438-1.3438-0.48047-0.28906-1.2344-0.4375-2.2656-0.4375-0.82422 0-1.5938 0.085937-2.3125 0.25-0.71875 0.16797-1.3867 0.41797-2 0.75v-2.9688c0.83203-0.19531 1.6641-0.34766 2.5-0.45312 0.84375-0.10156 1.6875-0.15625 2.5312-0.15625 2.1875 0 3.7656 0.43359 4.7344 1.2969 0.97656 0.86719 1.4688 2.2656 1.4688 4.2031z"/>
  </symbol>
  <symbol id="a" overflow="visible">
   <path d="m6.1094-15.594v3.4375h4v2.7812h-4v5.1562c0 0.5625 0.10938 0.94531 0.32812 1.1406 0.22656 0.19922 0.67578 0.29688 1.3438 0.29688h2v2.7812h-3.3438c-1.5312 0-2.6211-0.31641-3.2656-0.95312-0.63672-0.64453-0.95312-1.7344-0.95312-3.2656v-5.1562h-1.9219v-2.7812h1.9219v-3.4375z"/>
  </symbol>
  <symbol id="f" overflow="visible">
   <path d="m10.141-10.375v-6.5h3.8906v16.875h-3.8906v-1.75c-0.54297 0.71094-1.1367 1.2305-1.7812 1.5625-0.63672 0.33203-1.3828 0.5-2.2344 0.5-1.4922 0-2.7188-0.59375-3.6875-1.7812-0.96094-1.1875-1.4375-2.7188-1.4375-4.5938s0.47656-3.4062 1.4375-4.5938c0.96875-1.1875 2.1953-1.7812 3.6875-1.7812 0.84375 0 1.5859 0.16797 2.2344 0.5 0.64453 0.33594 1.2383 0.85547 1.7812 1.5625zm-2.5625 7.875c0.82031 0 1.4531-0.30078 1.8906-0.90625 0.44531-0.61328 0.67188-1.5 0.67188-2.6562s-0.22656-2.0352-0.67188-2.6406c-0.4375-0.61328-1.0703-0.92188-1.8906-0.92188-0.83594 0-1.4688 0.30859-1.9062 0.92188-0.4375 0.60547-0.65625 1.4844-0.65625 2.6406s0.21875 2.043 0.65625 2.6562c0.4375 0.60547 1.0703 0.90625 1.9062 0.90625z"/>
  </symbol>
  <symbol id="k" overflow="visible">
   <path d="m8.3281-2.5c0.83203 0 1.4688-0.30078 1.9062-0.90625 0.4375-0.61328 0.65625-1.5 0.65625-2.6562s-0.21875-2.0352-0.65625-2.6406c-0.4375-0.61328-1.0742-0.92188-1.9062-0.92188-0.83594 0-1.4766 0.30859-1.9219 0.92188-0.4375 0.60547-0.65625 1.4844-0.65625 2.6406 0 1.1484 0.21875 2.0273 0.65625 2.6406 0.44531 0.61719 1.0859 0.92188 1.9219 0.92188zm-2.5781-7.875c0.53125-0.70703 1.1172-1.2266 1.7656-1.5625 0.65625-0.33203 1.4102-0.5 2.2656-0.5 1.4883 0 2.7109 0.59375 3.6719 1.7812 0.96875 1.1875 1.4531 2.7188 1.4531 4.5938s-0.48438 3.4062-1.4531 4.5938c-0.96094 1.1875-2.1836 1.7812-3.6719 1.7812-0.85547 0-1.6094-0.16797-2.2656-0.5-0.64844-0.33203-1.2344-0.85156-1.7656-1.5625v1.75h-3.8906v-16.875h3.8906z"/>
  </symbol>
  <symbol id="e" overflow="visible">
   <path d="m0.26562-12.156h3.8906l3.2656 8.25 2.7812-8.25h3.875l-5.1094 13.312c-0.51172 1.3438-1.1094 2.2852-1.7969 2.8281-0.67969 0.53906-1.5781 0.8125-2.7031 0.8125h-2.25v-2.5469h1.2188c0.65625 0 1.1328-0.10938 1.4375-0.32812 0.30078-0.21094 0.53516-0.58594 0.70312-1.125l0.10938-0.32812z"/>
  </symbol>
  <symbol id="j" overflow="visible">
   <path d="m11.875-2.9531h-6.5312l-1.0312 2.9531h-4.2031l6-16.203h4.9844l6 16.203h-4.2031zm-5.5-3h4.4375l-2.2031-6.4531z"/>
  </symbol>
  <symbol id="i" overflow="visible">
   <path d="m13.125-10.141c0.48828-0.75 1.0703-1.3164 1.75-1.7031 0.67578-0.39453 1.4219-0.59375 2.2344-0.59375 1.3945 0 2.457 0.43359 3.1875 1.2969 0.72656 0.85547 1.0938 2.1016 1.0938 3.7344v7.4062h-3.9062v-6.3281c0.007813-0.10156 0.015625-0.20312 0.015625-0.29688 0.007812-0.10156 0.015625-0.25 0.015625-0.4375 0-0.86328-0.13281-1.4883-0.39062-1.875-0.25-0.38281-0.65625-0.57812-1.2188-0.57812-0.74219 0-1.3125 0.30859-1.7188 0.92188-0.39844 0.60547-0.60156 1.4805-0.60938 2.625v5.9688h-3.9062v-6.3281c0-1.3516-0.12109-2.2227-0.35938-2.6094-0.23047-0.38281-0.64062-0.57812-1.2344-0.57812-0.74219 0-1.3125 0.30859-1.7188 0.92188-0.40625 0.60547-0.60938 1.4766-0.60938 2.6094v5.9844h-3.9062v-12.156h3.9062v1.7812c0.47656-0.6875 1.0234-1.2031 1.6406-1.5469 0.625-0.34375 1.3047-0.51562 2.0469-0.51562 0.84375 0 1.582 0.20312 2.2188 0.60938 0.64453 0.39844 1.1328 0.96094 1.4688 1.6875z"/>
  </symbol>
  <symbol id="h" overflow="visible">
   <path d="m14.078-7.4062v7.4062h-3.9062v-5.6406c0-1.0625-0.027344-1.7891-0.078125-2.1875-0.042969-0.39453-0.12109-0.69141-0.23438-0.89062-0.14844-0.25-0.35156-0.44141-0.60938-0.57812-0.26172-0.14453-0.55859-0.21875-0.89062-0.21875-0.8125 0-1.4531 0.3125-1.9219 0.9375-0.46094 0.625-0.6875 1.4922-0.6875 2.5938v5.9844h-3.8906v-16.875h3.8906v6.5c0.58203-0.70703 1.2031-1.2266 1.8594-1.5625 0.66406-0.33203 1.3945-0.5 2.1875-0.5 1.4062 0 2.4688 0.43359 3.1875 1.2969 0.72656 0.85547 1.0938 2.1016 1.0938 3.7344z"/>
  </symbol>
  <symbol id="u" overflow="visible">
   <path d="m11.359-11.766v2.9531c-0.83594-0.35156-1.6367-0.61328-2.4062-0.78125-0.77344-0.17578-1.5-0.26562-2.1875-0.26562-0.74219 0-1.293 0.09375-1.6562 0.28125-0.35547 0.17969-0.53125 0.46094-0.53125 0.84375 0 0.3125 0.13281 0.55469 0.40625 0.71875 0.26953 0.16797 0.75391 0.28906 1.4531 0.35938l0.6875 0.10938c1.9883 0.25 3.3281 0.66797 4.0156 1.25 0.6875 0.57422 1.0312 1.4805 1.0312 2.7188 0 1.293-0.48047 2.2656-1.4375 2.9219-0.94922 0.64844-2.3711 0.96875-4.2656 0.96875-0.80469 0-1.6367-0.0625-2.5-0.1875-0.85547-0.125-1.7344-0.3125-2.6406-0.5625v-2.9531c0.78125 0.375 1.5781 0.65625 2.3906 0.84375s1.6328 0.28125 2.4688 0.28125c0.75781 0 1.332-0.10156 1.7188-0.3125 0.38281-0.20703 0.57812-0.51953 0.57812-0.9375 0-0.34375-0.13672-0.59766-0.40625-0.76562-0.26172-0.17578-0.78125-0.3125-1.5625-0.40625l-0.6875-0.09375c-1.7305-0.20703-2.9453-0.60156-3.6406-1.1875-0.6875-0.59375-1.0312-1.4844-1.0312-2.6719 0-1.2891 0.4375-2.2422 1.3125-2.8594 0.88281-0.625 2.2383-0.9375 4.0625-0.9375 0.71875 0 1.4688 0.054688 2.25 0.15625 0.78906 0.10547 1.6484 0.27734 2.5781 0.51562z"/>
  </symbol>
  <symbol id="t" overflow="visible">
   <path d="m13.312-15.688v3.4219c-0.88672-0.39453-1.7578-0.69141-2.6094-0.89062-0.84375-0.20703-1.6406-0.3125-2.3906-0.3125-1 0-1.7422 0.14062-2.2188 0.42188-0.48047 0.27344-0.71875 0.69922-0.71875 1.2812 0 0.42969 0.16016 0.76562 0.48438 1.0156 0.32031 0.24219 0.90625 0.44531 1.75 0.60938l1.7812 0.35938c1.8008 0.36719 3.082 0.91797 3.8438 1.6562 0.75781 0.74219 1.1406 1.7891 1.1406 3.1406 0 1.793-0.53125 3.125-1.5938 4-1.0547 0.86719-2.668 1.2969-4.8438 1.2969-1.0312 0-2.0703-0.10156-3.1094-0.29688-1.0312-0.1875-2.0625-0.47266-3.0938-0.85938v-3.5312c1.0312 0.55469 2.0312 0.96875 3 1.25 0.96875 0.27344 1.8984 0.40625 2.7969 0.40625 0.90625 0 1.5977-0.14844 2.0781-0.45312 0.48828-0.30078 0.73438-0.73438 0.73438-1.2969 0-0.50781-0.16797-0.89844-0.5-1.1719-0.32422-0.26953-0.97656-0.51562-1.9531-0.73438l-1.625-0.35938c-1.6172-0.35156-2.7969-0.90625-3.5469-1.6562-0.75-0.75781-1.125-1.7852-1.125-3.0781 0-1.6133 0.51953-2.8516 1.5625-3.7188 1.0391-0.86328 2.5391-1.2969 4.5-1.2969 0.88281 0 1.7969 0.070313 2.7344 0.20312 0.9375 0.125 1.9102 0.32422 2.9219 0.59375z"/>
  </symbol>
  <symbol id="g" overflow="visible">
   <path d="m1.7344-4.7344v-7.4219h3.9062v1.2188c0 0.65625-0.007813 1.4844-0.015625 2.4844v1.9844c0 0.98047 0.019531 1.6875 0.0625 2.125 0.050781 0.42969 0.14062 0.73438 0.26562 0.92188 0.15625 0.26172 0.36328 0.46094 0.625 0.59375 0.25781 0.13672 0.55469 0.20312 0.89062 0.20312 0.80078 0 1.4297-0.30469 1.8906-0.92188 0.46875-0.625 0.70312-1.4922 0.70312-2.6094v-6h3.8906v12.156h-3.8906v-1.75c-0.58594 0.71094-1.2031 1.2305-1.8594 1.5625s-1.375 0.5-2.1562 0.5c-1.4062 0-2.4805-0.42578-3.2188-1.2812-0.73047-0.86328-1.0938-2.1172-1.0938-3.7656z"/>
  </symbol>
  <symbol id="s" overflow="visible">
   <path d="m1.8594-12.156h3.8906v12.156h-3.8906zm0-4.7188h3.8906v3.1562h-3.8906z"/>
  </symbol>
  <symbol id="c" overflow="visible">
   <path d="m7.6562-9.6719c-0.86719 0-1.5273 0.3125-1.9844 0.9375-0.44922 0.61719-0.67188 1.5078-0.67188 2.6719 0 1.168 0.22266 2.0586 0.67188 2.6719 0.45703 0.61719 1.1172 0.92188 1.9844 0.92188 0.84375 0 1.4883-0.30469 1.9375-0.92188 0.44531-0.61328 0.67188-1.5039 0.67188-2.6719 0-1.1641-0.22656-2.0547-0.67188-2.6719-0.44922-0.625-1.0938-0.9375-1.9375-0.9375zm0-2.7656c2.082 0 3.7109 0.5625 4.8906 1.6875 1.1758 1.125 1.7656 2.6875 1.7656 4.6875s-0.58984 3.5625-1.7656 4.6875c-1.1797 1.125-2.8086 1.6875-4.8906 1.6875-2.1055 0-3.75-0.5625-4.9375-1.6875-1.1797-1.125-1.7656-2.6875-1.7656-4.6875s0.58594-3.5625 1.7656-4.6875c1.1875-1.125 2.832-1.6875 4.9375-1.6875z"/>
  </symbol>
  <symbol id="r" overflow="visible">
   <path d="m9.8594-16.875v2.5469h-2.1406c-0.55469 0-0.9375 0.10156-1.1562 0.29688-0.21875 0.19922-0.32812 0.54297-0.32812 1.0312v0.84375h3.3281v2.7812h-3.3281v9.375h-3.875v-9.375h-1.9375v-2.7812h1.9375v-0.84375c0-1.3203 0.36328-2.2969 1.0938-2.9219 0.73828-0.63281 1.8828-0.95312 3.4375-0.95312z"/>
  </symbol>
  <symbol id="q" overflow="visible">
   <path d="m2.0469-16.203h4.6562l5.8906 11.109v-11.109h3.9688v16.203h-4.6719l-5.8906-11.109v11.109h-3.9531z"/>
  </symbol>
  <symbol id="p" overflow="visible">
   <path d="m14.078-7.4062v7.4062h-3.9062v-5.6562c0-1.0508-0.027344-1.7734-0.078125-2.1719-0.042969-0.39453-0.12109-0.69141-0.23438-0.89062-0.14844-0.25-0.35156-0.44141-0.60938-0.57812-0.26172-0.14453-0.55859-0.21875-0.89062-0.21875-0.8125 0-1.4531 0.3125-1.9219 0.9375-0.46094 0.625-0.6875 1.4922-0.6875 2.5938v5.9844h-3.8906v-12.156h3.8906v1.7812c0.58203-0.70703 1.2031-1.2266 1.8594-1.5625 0.66406-0.33203 1.3945-0.5 2.1875-0.5 1.4062 0 2.4688 0.43359 3.1875 1.2969 0.72656 0.85547 1.0938 2.1016 1.0938 3.7344z"/>
  </symbol>
  <symbol id="o" overflow="visible">
   <path d="m2.0469-16.203h6.9219c2.0625 0 3.6445 0.46094 4.75 1.375 1.1016 0.91797 1.6562 2.2188 1.6562 3.9062 0 1.7109-0.55469 3.0234-1.6562 3.9375-1.1055 0.90625-2.6875 1.3594-4.75 1.3594h-2.75v5.625h-4.1719zm4.1719 3.0312v4.5312h2.3125c0.8125 0 1.4375-0.19531 1.875-0.59375 0.4375-0.39453 0.65625-0.95703 0.65625-1.6875 0-0.71875-0.21875-1.2695-0.65625-1.6562-0.4375-0.39453-1.0625-0.59375-1.875-0.59375z"/>
  </symbol>
  <symbol id="n" overflow="visible">
   <path d="m1.8594-12.156h3.8906v11.938c0 1.625-0.39062 2.8633-1.1719 3.7188-0.78125 0.86328-1.9141 1.2969-3.3906 1.2969h-1.9219v-2.5469h0.67188c0.73828 0 1.2422-0.16797 1.5156-0.5 0.26953-0.33594 0.40625-0.99219 0.40625-1.9688zm0-4.7188h3.8906v3.1562h-3.8906z"/>
  </symbol>
  <symbol id="m" overflow="visible">
   <path d="m11.688-11.766v3.1562c-0.53125-0.35156-1.0625-0.61719-1.5938-0.79688-0.53125-0.17578-1.0859-0.26562-1.6562-0.26562-1.0859 0-1.9297 0.32031-2.5312 0.95312-0.60547 0.63672-0.90625 1.5234-0.90625 2.6562 0 1.1367 0.30078 2.0234 0.90625 2.6562 0.60156 0.625 1.4453 0.9375 2.5312 0.9375 0.61328 0 1.1914-0.085938 1.7344-0.26562 0.53906-0.17578 1.0469-0.44141 1.5156-0.79688v3.1719c-0.61719 0.23047-1.2344 0.39453-1.8594 0.5-0.625 0.11328-1.25 0.17188-1.875 0.17188-2.1875 0-3.9023-0.5625-5.1406-1.6875-1.2422-1.125-1.8594-2.6875-1.8594-4.6875s0.61719-3.5625 1.8594-4.6875c1.2383-1.125 2.9531-1.6875 5.1406-1.6875 0.63281 0 1.2578 0.058594 1.875 0.17188 0.625 0.10547 1.2422 0.27344 1.8594 0.5z"/>
  </symbol>
 </defs>
 <g>
  <path d="m468.44 257.56c-0.035156-0.28125-0.089844-0.54688-0.17969-0.81641-0.09375-0.27734-0.21484-0.51953-0.35547-0.76953-0.13672-0.24609-0.28516-0.46484-0.46484-0.68359-0.19531-0.23047-0.41797-0.41797-0.65625-0.60938-0.13672-0.10547-0.22266-0.25391-0.375-0.34766-0.10938-0.066407-0.23438-0.070313-0.34766-0.125-0.11719-0.058594-0.19531-0.15625-0.31641-0.20313-17.449-6.9727-32.359-3.9062-39.699-1.4492-17.074 5.7109-26.676 18.148-30.879 25.047-0.066406 0.10938-0.070312 0.23438-0.125 0.34766-0.058593 0.11719-0.16016 0.19531-0.20703 0.31641-0.066406 0.16797-0.050781 0.34375-0.09375 0.51172-0.078125 0.28906-0.14062 0.57031-0.16016 0.86719-0.019531 0.28906 0 0.55859 0.039063 0.83984 0.035156 0.28516 0.089843 0.55078 0.17969 0.82031 0.089844 0.26953 0.20703 0.51562 0.35156 0.76562 0.13672 0.24609 0.28516 0.47266 0.47266 0.6875 0.19531 0.23047 0.41406 0.41797 0.65234 0.60547 0.13672 0.10547 0.22266 0.25391 0.37891 0.34766 0.14844 0.089844 0.30859 0.12891 0.45703 0.19922 0.074219 0.035157 0.125 0.10156 0.20312 0.13281 4.7773 1.9062 12.648 4.293 22.156 4.293 5.4102 0 11.348-0.77344 17.543-2.8477 7.332-2.4531 21.102-8.9766 30.879-25.047 0.066406-0.10937 0.070313-0.23437 0.125-0.34766 0.058594-0.11719 0.16016-0.19531 0.20703-0.31641 0.066406-0.16797 0.050782-0.34375 0.09375-0.51172 0.078125-0.29297 0.14062-0.57422 0.16016-0.86719 0.019532-0.28906 0.003907-0.55859-0.039062-0.83984zm-34.246 19.504c-11.098 3.707-21.227 2.4453-28.215 0.51172 4.4336-5.7617 11.785-12.875 22.891-16.59 5.4258-1.8125 15.785-4.0234 28.258-0.52344-7.8945 10.301-17.504 14.781-22.934 16.602z"/>
  <path d="m281.8 333.71c-3.3516 5.6758-5.875 11.879-7.5078 18.441-0.83984 3.3945-0.28516 6.9062 1.5586 9.8984 1.8477 2.9805 4.8672 5.1289 8.2852 5.8906l20.109 4.4844c3.875 0.86719 7.8672-0.058594 10.969-2.543 3.1055-2.4922 4.8945-6.2031 4.8945-10.195v-15.098c0-2.2969 1.8516-4.168 4.1367-4.168 2.2812 0 4.1367 1.8711 4.1367 4.168v17.223c0 7.1992 5.8438 13.059 13.027 13.059h17.164c7.1836 0 13.027-5.8516 13.027-13.059v-17.223c0-2.2969 1.8516-4.168 4.1367-4.168 2.2852 0 4.1367 1.8711 4.1367 4.168v15.098c0 3.9883 1.7812 7.7031 4.8945 10.195 3.0977 2.4883 7.0898 3.418 10.965 2.543l20.109-4.4844c3.4219-0.76172 6.4414-2.9062 8.2852-5.8906 1.8477-2.9922 2.4062-6.5039 1.5586-9.8984-1.6328-6.5625-4.1562-12.766-7.5078-18.441-13.129-22.242-39.898-36.625-68.184-36.625s-55.055 14.383-68.195 36.625zm68.195-27.734c25.199 0 48.969 12.668 60.543 32.262 2.9102 4.9297 5.1094 10.332 6.5273 16.062 0.26172 1.043 0.089844 2.1367-0.49219 3.0703-0.60156 0.97266-1.5469 1.6445-2.6641 1.8984l-20.117 4.4844c-1.668 0.35547-2.8945-0.34766-3.4727-0.80859-0.99219-0.79688-1.5586-1.9805-1.5586-3.2578v-15.098c0-7.1992-5.8438-13.059-13.027-13.059-7.1836 0-13.027 5.8516-13.027 13.059v17.223c0 2.2969-1.8516 4.168-4.1367 4.168h-17.164c-2.2852 0-4.1367-1.8711-4.1367-4.168v-17.223c0-7.1992-5.8398-13.059-13.027-13.059s-13.027 5.8516-13.027 13.059v15.098c0 1.2773-0.57031 2.4648-1.5586 3.2578-0.57422 0.46094-1.8047 1.168-3.4727 0.80859l-20.109-4.4844c-1.1094-0.25391-2.0586-0.92578-2.6641-1.8984-0.57812-0.93359-0.75-2.0273-0.49219-3.0703 1.418-5.7305 3.6172-11.133 6.5273-16.062 11.582-19.598 35.352-32.262 60.551-32.262z"/>
  <path d="m422.04 376.14c-0.90625-1.0625-2.25-1.6133-3.6562-1.5547-1.3945 0.089844-2.6719 0.82812-3.4414 1.9922-4.6641 7.0898-9.0625 14.441-13.07 21.859-2.6328 4.8711-5.1523 9.8672-7.5117 14.895l-88.727-0.007813c-2.3594-5.0273-4.8789-10.023-7.5117-14.895-4.0078-7.418-8.4102-14.77-13.07-21.859-0.76953-1.168-2.043-1.9062-3.4414-1.9922-1.3672-0.0625-2.75 0.48828-3.6562 1.5547-4.7383 5.5625-10.98 14.895-13.906 28.117-1.543 7.1484 0.875 14.297 6.4609 19.121 5.625 4.8438 13.41 6.2461 20.324 3.6445l12.77-4.8047h92.785l12.773 4.8047c2.3008 0.86719 4.6914 1.2891 7.0742 1.2891 4.7773 0 9.4922-1.7031 13.246-4.9336 5.5859-4.8203 8.0039-11.969 6.3867-19.48-2.2539-10.168-7.0352-19.766-13.828-27.75zm-134.34 42.562c-3.9219 1.4648-8.1758 0.70312-11.387-2.0625-3.0898-2.668-4.4258-6.5898-3.5117-10.832 1.7539-7.9336 5.0117-14.312 8.2266-19.047 3.2656 5.207 6.375 10.539 9.2695 15.898 2.2383 4.1406 4.3906 8.3789 6.4297 12.641zm135.97-2.0586c-3.207 2.7656-7.4648 3.5273-11.387 2.0625l-9.0312-3.4062c2.0391-4.2617 4.1914-8.4961 6.4297-12.641 2.8984-5.3594 6.0039-10.684 9.2656-15.895 3.2148 4.7617 6.4883 11.203 8.2969 19.359 0.85156 3.9258-0.48438 7.8555-3.5742 10.52z"/>
  <path d="m602.21 311.49-104.2-117.09c27.75-22.996 35.32-45.395 36.645-60.395 1.9883-22.492-11.105-45.996-34.875-88.664-8.1719-14.68-16.883-29.246-25.891-43.289-0.9375-1.4609-2.6641-2.2266-4.3594-2.0039-1.7227 0.24609-3.1406 1.4648-3.6406 3.1328-4.5781 15.379-6.0703 30.457-4.4492 44.82 1.3203 11.676 4.418 20.68 7.1484 28.617 3.4453 10.02 6.4219 18.672 5.707 30.898-0.19531 3.3242-0.74219 6.6367-1.4531 9.9336-6.1641-2.4805-12.562-4.3242-19.105-5.4453-6.4805-1.1094-13.027-1.5273-19.57-1.2617 2.2383-3.0547 4.1602-6.3242 5.707-9.75 2.6719-5.9219 4.2461-12.23 4.6758-18.754 0.10547-1.6367-0.69141-3.1953-2.0781-4.0625-1.3906-0.86719-3.1406-0.89844-4.5625-0.089843-6.4453 3.6875-13.277 6.4297-20.305 8.1523-8.3203 2.0391-14.395 2.0586-20.277 2.0742-6.0664 0.019531-11.801 0.035156-18.688 2.3281-4.7539 1.582-18.172 6.043-28.637 18.375-10.461-12.324-23.879-16.789-28.637-18.375-6.8906-2.293-12.621-2.3125-18.688-2.3281-5.8789-0.019531-11.957-0.035156-20.277-2.0742-7.0312-1.7227-13.863-4.4648-20.305-8.1523-1.4219-0.80859-3.1719-0.77734-4.5625 0.089843-1.3867 0.86719-2.1875 2.4258-2.0781 4.0625 0.42969 6.5234 2.0039 12.836 4.6758 18.754 1.5469 3.4258 3.4648 6.6992 5.707 9.75-6.5391-0.27734-13.086 0.15234-19.57 1.2617-6.543 1.1211-12.941 2.9648-19.105 5.4453-0.71094-3.2969-1.2578-6.6094-1.4531-9.9336-0.71484-12.227 2.2578-20.879 5.707-30.898 2.7344-7.9414 5.832-16.941 7.1484-28.617 1.6211-14.363 0.12891-29.445-4.4492-44.82-0.49609-1.668-1.9141-2.8906-3.6406-3.1328-1.7305-0.25-3.4258 0.53906-4.3594 2.0039-9 14.043-17.711 28.613-25.891 43.289-23.77 42.672-36.859 66.172-34.875 88.664 1.3242 15 8.8906 37.398 36.645 60.395l-104.2 117.09c-1.125 1.2656-1.4297 3.0508-0.80469 4.6211 0.63281 1.5625 2.0977 2.6406 3.7773 2.7695 17.102 1.3281 34.168 4.1836 50.723 8.4805 12.133 3.1523 24.164 7.1211 35.789 11.805 2.7695 17.457-1.5586 37.41-12.875 59.355-0.75391 1.4648-0.64062 3.2344 0.30859 4.582 0.94531 1.3555 2.5508 2.0625 4.2031 1.8633 5.1641-0.65625 10.047-2.293 14.523-4.8633 0.91406-0.52344 1.7812-1.0703 2.6133-1.6406-1.1641 7.9375-1.3906 15.969-0.67188 24.012 1.9922 22.238 10.848 39.184 17.93 49.484 0.74609 1.0898 1.9453 1.7852 3.2578 1.9102 1.3086 0.12891 2.6172-0.35156 3.5508-1.2891l14.52-14.562c0.12109 5.0938-0.089844 10.199-0.625 15.262-0.74609 6.9922-2.1367 13.973-4.1328 20.742-0.45312 1.5352-0.050781 3.1875 1.0547 4.3359 1.1016 1.1523 2.7539 1.6211 4.2852 1.2305 7.9102-1.9766 15.512-5.0312 22.582-9.0625 3.9766-2.2656 7.7773-4.8398 11.355-7.6875 1.6172 11.102 5.9766 26.453 17.258 41 11.832 15.262 26.207 23.234 36.191 27.234 1.5117 0.61328 3.2461 0.33594 4.4961-0.70703 1.2578-1.043 1.8359-2.6914 1.5117-4.2969-1.6133-8-1.6133-16.098 0-24.07 1.1406-5.625 3.0586-11.012 5.7148-16.074 6.4219 4.6484 15.078 12.816 20.133 25.457 3.0312 7.5781 4.3672 15.648 3.9766 23.977-0.070312 1.5547 0.67188 3.0352 1.9609 3.8984 0.74609 0.49609 1.6094 0.75391 2.4805 0.75391 0.64062 0 1.2773-0.13672 1.8711-0.41406 12.188-5.6641 29.809-16.473 44.57-35.777 9.4531-12.363 16.48-26.68 20.543-41.773 3.8711 3.168 8 6.0117 12.348 8.4922 7.0703 4.0273 14.668 7.0781 22.582 9.0586 1.5391 0.39062 3.1836-0.085938 4.2852-1.2305 1.1016-1.1484 1.5078-2.8047 1.0547-4.3359-1.9961-6.7695-3.3867-13.75-4.1328-20.742-0.53906-5.0625-0.74609-10.164-0.625-15.262l14.52 14.562c0.93359 0.9375 2.2461 1.4219 3.5508 1.2891 1.3164-0.12109 2.5117-0.82031 3.2578-1.9102 7.0781-10.297 15.938-27.246 17.93-49.484 0.71875-8.0469 0.49219-16.074-0.67187-24.012 0.83203 0.57031 1.6992 1.1172 2.6133 1.6406 4.4766 2.5703 9.3594 4.1992 14.523 4.8633 1.6406 0.19922 3.2578-0.50781 4.2031-1.8633 0.94531-1.3516 1.0664-3.1172 0.30859-4.582-11.32-21.945-15.645-41.902-12.875-59.355 11.633-4.6875 23.656-8.6523 35.789-11.805 16.555-4.2969 33.621-7.1523 50.723-8.4805 1.6797-0.12891 3.1484-1.2031 3.7773-2.7695 0.61328-1.5781 0.30469-3.3633-0.81641-4.6289zm-76.402-178.27c-0.90234 10.219-4.8828 20.617-11.609 30.668-6.6406-0.23438-15.621-1.957-24.32-8.0781-7.7852-5.4805-12.285-12.391-14.809-17.766 2.0039-4.0859 3.5625-8.2344 4.8398-12.422 0.019531-0.035156 0.050781-0.0625 0.0625-0.097656 0.066406-0.13672 0.054688-0.28516 0.10156-0.42188 0.64844-2.1797 1.1797-4.3672 1.625-6.5703 3.9062 1.5117 9.3359 2.9922 15.719 2.9922 2.5117 0 5.168-0.23047 7.9258-0.77734 7.6875-1.5273 13.574-4.9883 17.73-8.2969 2.3867 7.6641 3.3008 14.309 2.7344 20.77zm-5.9688-29.723c-3.2188 3.0742-8.5938 7.0117-16.219 8.5273-9.0312 1.793-16.582-0.71875-20.605-2.5742 0.035156-0.47656 0.12891-0.94141 0.15625-1.418 0.59375-10.094-1.0234-18.039-3.3164-25.617 1.5508 0.17969 3.1016 0.36328 4.6562 0.36328 2.6562 0 5.3164-0.26172 7.9648-0.78516 4.9961-0.99219 9.8008-2.9492 14.148-5.7227 5.6719 10.629 10.062 19.5 13.215 27.227zm-47.914-87.93c6.9453 11.16 13.684 22.59 20.094 34.094 3.793 6.8086 7.2188 12.992 10.359 18.75-3.5586 2.3828-7.4492 4.0312-11.637 4.8633-4.6562 0.92578-9.3672 0.73828-14.035-0.41797-2.6133-7.6133-5.2617-15.539-6.4297-25.863-1.1406-10.102-0.58594-20.641 1.6484-31.426zm-278.54 60.703c4.3477 2.7734 9.1523 4.7344 14.148 5.7227 2.6484 0.52344 5.3047 0.78516 7.9648 0.78516 1.5547 0 3.1055-0.1875 4.6562-0.36328-2.293 7.5781-3.9102 15.523-3.3164 25.617 0.027344 0.47656 0.12109 0.94531 0.15625 1.418-4.0234 1.8516-11.574 4.3633-20.605 2.5742-7.6211-1.5156-13-5.4531-16.219-8.5273 3.1523-7.7266 7.543-16.598 13.215-27.227zm14.605-26.605c6.4102-11.504 13.148-22.934 20.094-34.094 2.2344 10.785 2.793 21.32 1.6484 31.43-1.168 10.32-3.8125 18.25-6.4297 25.863-4.668 1.1562-9.3789 1.3438-14.035 0.41797-4.1875-0.83203-8.0742-2.4805-11.637-4.8633 3.1406-5.7656 6.5664-11.945 10.359-18.754zm-22.18 114.22c-6.7227-10.047-10.707-20.449-11.609-30.668-0.57031-6.457 0.34766-13.102 2.7227-20.77 4.1562 3.3125 10.039 6.7734 17.73 8.2969 2.7617 0.54688 5.4141 0.77734 7.9258 0.77734 6.3828 0 11.812-1.4844 15.719-2.9922 0.44922 2.1992 0.97656 4.3906 1.625 6.5703 0.050781 0.13672 0.039062 0.28516 0.10156 0.42188 0.011719 0.03125 0.042969 0.050781 0.058594 0.078125 1.2773 4.1914 2.8359 8.3555 4.8438 12.441-2.5195 5.375-7.0195 12.285-14.809 17.766-8.6836 6.125-17.668 7.8438-24.309 8.0781zm-3.2969 137.28c-0.92969 11.48 0.80859 20.328 2.5039 27.559-10.23-3.8828-20.719-7.2305-31.285-9.9727-14.215-3.6875-28.789-6.3477-43.449-7.9258l87.695-98.547c-4.2656 12.188-9.2891 24.102-15.012 35.602-5.0625 10.164-10.754 20.16-16.926 29.711-1.0234 1.5859-0.93359 3.6445 0.22266 5.1367 1.1602 1.4883 3.1289 2.0977 4.9219 1.4883l16.312-5.457c-2.7031 7.3438-4.375 14.844-4.9844 22.406zm318-27.797c4.6133 9.25 7.3477 18.84 8.1289 28.516 0.92188 11.383-1.0898 19.777-2.8633 27.191-0.49609 2.0859-0.96875 4.0625-1.3477 5.9688-0.007813 0.042969-0.019531 0.09375-0.027344 0.13672-3.4492 17.559-0.42188 37.188 9 58.453-0.82031-0.37891-1.625-0.79688-2.4141-1.2461-5.8438-3.3555-9.3359-7.9883-11.23-11.281-1.1328-1.9688-3.5781-2.7695-5.6445-1.8477-2.0781 0.91406-3.1328 3.25-2.4453 5.4141 3.8398 12.07 5.2188 24.523 4.0977 37.008-1.5508 17.348-7.6836 31.184-13.477 40.715l-17.57-17.625c-1.207-1.207-3.0039-1.6211-4.625-1.0547-1.6133 0.57031-2.7617 2.0195-2.9414 3.7188-0.94531 8.8828-0.94531 17.891 0 26.777 0.51953 4.8672 1.3281 9.7227 2.4141 14.52-4.4844-1.5859-8.8203-3.5781-12.961-5.9336-5.9102-3.3789-11.387-7.4961-16.266-12.246-1.1641-1.1328-2.8633-1.5391-4.4141-1.0586-1.5547 0.48047-2.7227 1.7695-3.043 3.3672-3.3242 16.484-10.457 32.23-20.633 45.539-11.297 14.781-24.414 24.176-34.996 29.949-0.42969-6.9961-1.957-13.797-4.5508-20.289-7.1016-17.77-20.316-27.852-27.559-32.285-2.0781-1.2773-4.8008-0.63672-6.0898 1.4414-4.4258 7.0898-7.5117 14.828-9.168 23-1.293 6.3828-1.6836 12.84-1.1719 19.277-7.9453-4.1641-17.27-10.777-25.289-21.117-13.238-17.078-15.859-35.414-16.238-44.816-0.070313-1.7539-1.1641-3.3008-2.7969-3.9492-1.625-0.64844-3.4883-0.28125-4.7422 0.94141-4.8828 4.7461-10.355 8.8672-16.266 12.238-4.1367 2.3594-8.4766 4.3516-12.961 5.9375 1.0898-4.7969 1.8984-9.6523 2.4141-14.52 0.94531-8.8906 0.94531-17.895 0-26.777-0.18359-1.7031-1.3242-3.1523-2.9414-3.7188-1.6211-0.57422-3.418-0.16016-4.625 1.0547l-17.57 17.625c-5.793-9.5391-11.926-23.367-13.477-40.715-1.1211-12.488 0.26172-24.938 4.0977-37.008 0.6875-2.1602-0.36328-4.4961-2.4453-5.4141-2.0781-0.91406-4.5117-0.125-5.6445 1.8477-1.8984 3.293-5.3867 7.9258-11.23 11.281-0.79297 0.45312-1.5938 0.86719-2.4141 1.2461 9.4219-21.266 12.453-40.887 9-58.453-0.007813-0.050782-0.019531-0.09375-0.027344-0.14063-0.37891-1.9023-0.84766-3.8789-1.3477-5.9648-1.7695-7.4141-3.7812-15.812-2.8633-27.195 0.78125-9.6719 3.5156-19.262 8.1289-28.512 0.80078-1.6094 0.55469-3.543-0.62109-4.8984-1.1797-1.3594-3.0586-1.8594-4.7656-1.2969l-14.098 4.7148c3.8789-6.5586 7.5273-13.266 10.906-20.047 9.0117-18.098 16.332-37.199 21.762-56.766v-0.019531c0.019531-0.070313 0.003906-0.14844 0.023437-0.22266 0.10156-0.46484 0.14062-0.92969 0.097657-1.3867-0.019532-0.16797-0.078126-0.32031-0.11719-0.48828-0.078125-0.35938-0.17188-0.70703-0.33594-1.0312-0.085937-0.17188-0.19922-0.32422-0.3125-0.48828-0.19922-0.29297-0.42187-0.55859-0.6875-0.80469-0.085937-0.074218-0.125-0.18359-0.21484-0.25-7.375-5.75-13.746-11.844-19.031-18.148 6.9609-1 15.141-3.5234 23.145-9.1602 10.445-7.3555 15.938-16.812 18.707-23.453 0.50781-1.2188 0.44922-2.5938-0.16016-3.7656-1.6797-3.2227-3.0117-6.4961-4.1836-9.793 5.8438-2.4258 11.926-4.2344 18.156-5.2969 9.4531-1.6211 19.059-1.6172 28.539 0 1.9609 0.34375 3.9141-0.67969 4.7695-2.4844 0.85156-1.8047 0.39453-3.957-1.1172-5.2617-4.9883-4.3047-9.0391-9.7305-11.73-15.684-1.0977-2.4258-1.9688-4.9375-2.6172-7.5078 4.7617 2.1289 9.6719 3.8125 14.676 5.0391 9.3516 2.293 16.266 2.3164 22.367 2.332 5.5625 0.019531 10.367 0.03125 15.906 1.8711 4.625 1.543 18.707 6.2227 27.746 19.777 1.6484 2.4766 5.7461 2.4766 7.3945 0 9.0391-13.551 23.121-18.234 27.746-19.777 5.5391-1.8438 10.344-1.8516 15.906-1.8711 6.1016-0.019531 13.02-0.039063 22.367-2.332 5-1.2266 9.9102-2.9141 14.676-5.0391-0.64844 2.5742-1.5234 5.0781-2.6172 7.5078-2.6836 5.957-6.7422 11.383-11.73 15.684-1.5117 1.3008-1.9688 3.4531-1.1172 5.2617 0.84766 1.8047 2.8125 2.832 4.7695 2.4844 9.4805-1.6211 19.078-1.6211 28.539 0 6.2305 1.0664 12.312 2.8711 18.156 5.2969-1.168 3.293-2.4961 6.5703-4.1836 9.793-0.60938 1.168-0.66797 2.5469-0.16016 3.7656 2.7695 6.6406 8.2617 16.098 18.707 23.453 8.0039 5.6367 16.191 8.1602 23.145 9.1602-5.2852 6.2969-11.656 12.395-19.031 18.148-0.089844 0.070313-0.13281 0.17188-0.21484 0.25-0.26562 0.24609-0.49219 0.51172-0.6875 0.80469-0.10938 0.16406-0.22266 0.31641-0.3125 0.48828-0.16406 0.32812-0.25781 0.67578-0.33594 1.0352-0.035157 0.16406-0.10156 0.32031-0.11719 0.48828-0.042969 0.46094-0.007812 0.92969 0.097657 1.3945 0.011718 0.070312 0.003906 0.14062 0.023437 0.21484v0.019531c5.4258 19.57 12.746 38.668 21.762 56.766 3.3789 6.7812 7.0273 13.488 10.906 20.047l-14.098-4.7148c-1.707-0.57812-3.5898-0.0625-4.7656 1.2969-1.1523 1.3555-1.3945 3.2891-0.59766 4.8984zm45.77 45.383c-10.562 2.7422-21.055 6.0898-31.285 9.9727 1.6875-7.2305 3.4258-16.078 2.5039-27.555-0.60938-7.5625-2.2812-15.07-4.9883-22.414l16.312 5.457c1.793 0.60938 3.7656 0 4.9219-1.4883 1.1562-1.4883 1.2461-3.5508 0.22266-5.1367-6.168-9.5469-11.859-19.543-16.926-29.711-5.7227-11.496-10.746-23.414-15.012-35.602l87.695 98.547c-14.652 1.5859-29.23 4.2383-43.445 7.9297z"/>
  <path d="m302.68 284.04c0.078125-0.03125 0.12891-0.097657 0.20312-0.13281 0.15234-0.070312 0.3125-0.10938 0.45703-0.19922 0.15234-0.09375 0.23828-0.23828 0.37891-0.34766 0.23828-0.1875 0.46094-0.37891 0.65234-0.60547 0.1875-0.21875 0.33203-0.44531 0.47266-0.6875 0.14062-0.25 0.26172-0.49219 0.35156-0.76562 0.089843-0.26953 0.14062-0.53906 0.17969-0.82031 0.035156-0.28125 0.058594-0.55078 0.039063-0.83984-0.019531-0.29297-0.078125-0.57422-0.16016-0.86719-0.042968-0.16797-0.027343-0.34766-0.09375-0.51172-0.050781-0.12109-0.14844-0.19922-0.20312-0.31641-0.058594-0.10938-0.058594-0.23438-0.125-0.34766-4.2031-6.9023-13.805-19.336-30.883-25.047-7.332-2.4492-22.246-5.5234-39.699 1.4492-0.12109 0.050782-0.19922 0.14844-0.31641 0.20312-0.10938 0.058594-0.23828 0.058594-0.34766 0.125-0.15234 0.09375-0.23828 0.23828-0.375 0.34766-0.24609 0.1875-0.46094 0.37891-0.65625 0.60937-0.18359 0.21875-0.32812 0.44141-0.46484 0.68359-0.14062 0.25-0.26172 0.49609-0.35547 0.76953-0.089843 0.26953-0.13672 0.53516-0.17969 0.81641-0.035156 0.28125-0.058594 0.55078-0.039063 0.83984 0.019531 0.29687 0.078125 0.57422 0.16016 0.86719 0.042968 0.16797 0.027343 0.34375 0.09375 0.51172 0.050781 0.12109 0.14844 0.19922 0.20312 0.3125 0.058594 0.11719 0.058594 0.23828 0.125 0.34766 9.7812 16.07 23.547 22.59 30.879 25.055 6.1953 2.0703 12.129 2.8438 17.543 2.8438 9.5078 0 17.383-2.3867 22.16-4.293zm-59.809-23.582c12.477-3.4883 22.832-1.2891 28.254 0.52344 11.102 3.7148 18.457 10.832 22.895 16.59-6.9883 1.9375-17.109 3.1992-28.215-0.51172-5.4297-1.8164-15.039-6.2969-22.934-16.602z"/>
  <use x="96.667969" y="626.667969" xlink:href="#v"/>
  <use x="112.976562" y="626.667969" xlink:href="#d"/>
  <use x="123.9375" y="626.667969" xlink:href="#b"/>
  <use x="139.007812" y="626.667969" xlink:href="#l"/>
  <use x="154.003906" y="626.667969" xlink:href="#a"/>
  <use x="164.625" y="626.667969" xlink:href="#b"/>
  <use x="179.699219" y="626.667969" xlink:href="#f"/>
  <use x="203.339844" y="626.667969" xlink:href="#k"/>
  <use x="219.246094" y="626.667969" xlink:href="#e"/>
  <use x="241.46875" y="626.667969" xlink:href="#j"/>
  <use x="258.667969" y="626.667969" xlink:href="#i"/>
  <use x="281.824219" y="626.667969" xlink:href="#b"/>
  <use x="296.894531" y="626.667969" xlink:href="#a"/>
  <use x="307.519531" y="626.667969" xlink:href="#h"/>
  <use x="323.335938" y="626.667969" xlink:href="#e"/>
  <use x="337.824219" y="626.667969" xlink:href="#u"/>
  <use x="351.050781" y="626.667969" xlink:href="#a"/>
  <use x="369.410156" y="626.667969" xlink:href="#t"/>
  <use x="385.414062" y="626.667969" xlink:href="#a"/>
  <use x="396.035156" y="626.667969" xlink:href="#g"/>
  <use x="411.855469" y="626.667969" xlink:href="#f"/>
  <use x="427.765625" y="626.667969" xlink:href="#s"/>
  <use x="435.382812" y="626.667969" xlink:href="#c"/>
  <use x="96.667969" y="648.886719" xlink:href="#r"/>
  <use x="106.335938" y="648.886719" xlink:href="#d"/>
  <use x="117.296875" y="648.886719" xlink:href="#c"/>
  <use x="132.5625" y="648.886719" xlink:href="#i"/>
  <use x="163.453125" y="648.886719" xlink:href="#a"/>
  <use x="174.078125" y="648.886719" xlink:href="#h"/>
  <use x="189.898438" y="648.886719" xlink:href="#b"/>
  <use x="212.707031" y="648.886719" xlink:href="#q"/>
  <use x="231.304688" y="648.886719" xlink:href="#c"/>
  <use x="246.570312" y="648.886719" xlink:href="#g"/>
  <use x="262.390625" y="648.886719" xlink:href="#p"/>
  <use x="285.945312" y="648.886719" xlink:href="#o"/>
  <use x="302.234375" y="648.886719" xlink:href="#d"/>
  <use x="313.191406" y="648.886719" xlink:href="#c"/>
  <use x="328.460938" y="648.886719" xlink:href="#n"/>
  <use x="336.078125" y="648.886719" xlink:href="#b"/>
  <use x="351.148438" y="648.886719" xlink:href="#m"/>
  <use x="364.320312" y="648.886719" xlink:href="#a"/>
 </g>
</svg>
